<svg width="55" height="55" viewBox="0 0 55 55" fill="none" xmlns="http://www.w3.org/2000/svg">
<g clip-path="url(#clip0)">
<path d="M47.736 0.401859C48.8992 -0.543239 50.6383 0.284554 50.6383 1.7832V25.6319L31.0596 14.0627L47.736 0.401859Z" fill="#FFC850"/>
<path d="M48.8585 24.5802L36.9376 17.5361L46.87 6.33833C47.5645 5.55544 48.8585 6.04657 48.8585 7.09318V24.5802Z" fill="#EBAF4B"/>
<path d="M7.26377 0.401859C6.1005 -0.543239 4.36145 0.284554 4.36145 1.7832V25.6319L23.9402 14.0627L7.26377 0.401859Z" fill="#FFC850"/>
<path d="M6.1413 24.5802L18.0622 17.5361L8.12978 6.33833C7.4353 5.55544 6.1413 6.04657 6.1413 7.09318V24.5802Z" fill="#EBAF4B"/>
<path d="M27.4999 55C41.2621 55 52.4185 44.4413 52.4185 31.4166C52.4185 18.3918 41.2621 7.83319 27.4999 7.83319C13.7377 7.83319 2.58124 18.3918 2.58124 31.4166C2.58124 44.4413 13.7377 55 27.4999 55Z" fill="#FFDC64"/>
<path d="M31.0596 46.1006V47.8805C31.0596 49.8466 29.4659 51.4403 27.4999 51.4403C25.5338 51.4403 23.9401 49.8466 23.9401 47.8805V46.1006L27.4999 44.3208L31.0596 46.1006Z" fill="#FF8087"/>
<path d="M29.4651 36.9383H25.5347C24.6862 36.9383 24.2163 37.922 24.7498 38.5818L26.7151 41.0132C27.119 41.5129 27.8808 41.5129 28.2848 41.0132L30.2501 38.5818C30.7835 37.922 30.3137 36.9383 29.4651 36.9383Z" fill="#5D5360"/>
<path d="M51.5273 46.9905C51.3892 46.9905 51.2488 46.9584 51.1175 46.8902C45.7365 44.0922 37.3148 42.4296 37.23 42.4131C36.7477 42.3192 36.4331 41.8517 36.5269 41.3693C36.6213 40.8865 37.084 40.5714 37.5708 40.6662C37.9254 40.7352 46.3273 42.3931 51.9389 45.311C52.3747 45.5379 52.5446 46.0749 52.3178 46.5112C52.1592 46.8159 51.849 46.9905 51.5273 46.9905Z" fill="#E1A546"/>
<path d="M53.3086 40.7613C53.2321 40.7613 53.1543 40.7514 53.077 40.7305C48.0889 39.3896 39.0187 39.6442 38.9292 39.648C38.4295 39.6624 38.0271 39.2764 38.0128 38.7854C37.998 38.294 38.3844 37.8837 38.8754 37.869C39.2578 37.8569 48.3002 37.603 53.5394 39.0114C54.0139 39.1392 54.2952 39.6272 54.1678 40.1021C54.0608 40.4993 53.7014 40.7609 53.3086 40.7613Z" fill="#E1A546"/>
<path d="M33.7295 53.2201C19.9674 53.2201 8.81115 42.6615 8.81115 29.6367C8.81115 20.0724 14.8304 11.844 23.4762 8.14365C11.6282 9.96466 2.58154 19.6888 2.58154 31.4166C2.58154 44.4414 13.7378 55 27.4999 55C31.1562 55 34.625 54.2486 37.7532 52.9097C36.4428 53.1111 35.0999 53.2201 33.7295 53.2201Z" fill="#FFC850"/>
<path d="M3.47229 46.9905C3.15078 46.9905 2.84044 46.8163 2.68188 46.5112C2.45501 46.075 2.62495 45.5379 3.06076 45.311C8.67248 42.3931 17.0743 40.7353 17.4289 40.6662C17.9116 40.5693 18.3784 40.8869 18.4727 41.3693C18.5666 41.8516 18.2519 42.3192 17.7696 42.4131C17.6849 42.4296 9.26298 44.0922 3.88211 46.8902C3.75084 46.9584 3.61054 46.9905 3.47229 46.9905Z" fill="#E1A546"/>
<path d="M1.69113 40.7613C1.29829 40.7613 0.938962 40.4993 0.832077 40.1021C0.704783 39.6272 0.985906 39.1392 1.46039 39.0114C6.7001 37.6026 15.7412 37.8582 16.1244 37.869C16.6155 37.8838 17.0018 38.294 16.987 38.7854C16.9722 39.2765 16.5468 39.6659 16.0706 39.648C15.9794 39.645 6.90786 39.3895 1.92284 40.7305C1.84539 40.7514 1.76761 40.7613 1.69113 40.7613Z" fill="#E1A546"/>
<path d="M17.2656 34.5314C15.5525 34.5314 14.1508 33.1298 14.1508 31.4166V29.6367C14.1508 27.9236 15.5525 26.5219 17.2656 26.5219C18.9788 26.5219 20.3804 27.9236 20.3804 29.6367V31.4166C20.3804 33.1296 18.9788 34.5314 17.2656 34.5314Z" fill="#4B3F4E"/>
<path d="M17.2656 26.5219C17.1133 26.5219 16.9672 26.5457 16.8207 26.5671V30.9716C16.8207 31.9547 17.6175 32.7515 18.6006 32.7515C19.5836 32.7515 20.3804 31.9547 20.3804 30.9716V29.6367C20.3804 27.9236 18.9787 26.5219 17.2656 26.5219Z" fill="#5D5360"/>
<path d="M17.2658 30.0821C18.003 30.0821 18.6007 29.4844 18.6007 28.7472C18.6007 28.0099 18.003 27.4122 17.2658 27.4122C16.5285 27.4122 15.9308 28.0099 15.9308 28.7472C15.9308 29.4844 16.5285 30.0821 17.2658 30.0821Z" fill="white"/>
<path d="M37.7342 34.5314C36.021 34.5314 34.6194 33.1298 34.6194 31.4166V29.6367C34.6194 27.9236 36.021 26.5219 37.7342 26.5219C39.4474 26.5219 40.849 27.9236 40.849 29.6367V31.4166C40.849 33.1296 39.4474 34.5314 37.7342 34.5314Z" fill="#4B3F4E"/>
<path d="M37.7342 26.5219C37.5819 26.5219 37.4358 26.5457 37.2892 26.5671V30.9716C37.2892 31.9547 38.0861 32.7515 39.0691 32.7515C40.0521 32.7515 40.849 31.9547 40.849 30.9716V29.6367C40.849 27.9236 39.4474 26.5219 37.7342 26.5219Z" fill="#5D5360"/>
<path d="M37.734 30.0821C38.4712 30.0821 39.0689 29.4844 39.0689 28.7472C39.0689 28.0099 38.4712 27.4122 37.734 27.4122C36.9967 27.4122 36.399 28.0099 36.399 28.7472C36.399 29.4844 36.9967 30.0821 37.734 30.0821Z" fill="white"/>
<path d="M28.1884 41.0513L26.2231 37.161C26.1874 37.0903 26.1675 37.013 26.1405 36.9382H25.5347C24.6862 36.9382 24.2164 37.9219 24.7497 38.5818L26.715 41.0131C27.0963 41.4847 27.7872 41.4949 28.2042 41.0762C28.1995 41.0671 28.1932 41.0608 28.1884 41.0513Z" fill="#4B3F4E"/>
<path d="M27.4999 44.3208L23.9401 46.1006V47.8805C23.9401 48.1629 23.9813 48.4342 24.0434 48.6976C24.9389 48.5865 25.8039 48.3271 26.6099 47.9292V48.7704C26.6099 49.2619 27.0083 49.6604 27.4999 49.6604C27.9914 49.6604 28.3899 49.262 28.3899 48.7704V47.9293C29.196 48.3272 30.0609 48.5866 30.9564 48.6976C31.0185 48.4342 31.0596 48.1628 31.0596 47.8805V46.1006L27.4999 44.3208Z" fill="#E6646E"/>
<path d="M31.9496 46.9905C30.6907 46.9905 29.4775 46.6164 28.442 45.9084C27.8875 45.5296 27.1127 45.5296 26.5574 45.9084C25.5223 46.6164 24.309 46.9905 23.0501 46.9905C21.5184 46.9905 20.0431 46.4239 18.8959 45.3953C18.5301 45.0668 18.4996 44.504 18.8277 44.1381C19.1558 43.7723 19.7173 43.7419 20.0849 44.0699C21.5792 45.4109 23.918 45.5574 25.5532 44.4388C26.7177 43.6436 28.2826 43.6436 29.4463 44.4388C31.0819 45.5569 33.421 45.41 34.9154 44.0704C35.2809 43.7427 35.8431 43.7723 36.1722 44.139C36.5002 44.5049 36.4694 45.0677 36.1035 45.3957C34.9562 46.4243 33.4814 46.9905 31.9496 46.9905Z" fill="#EBAF4B"/>
</g>
<defs>
<clipPath id="clip0">
<rect width="55" height="55" fill="white"/>
</clipPath>
</defs>
</svg>
