<svg width="55" height="55" viewBox="0 0 55 55" fill="none" xmlns="http://www.w3.org/2000/svg">
<g clip-path="url(#clip0)">
<path d="M7.85687 1.19603C6.72776 0.278544 5.03964 1.08216 5.03964 2.53686V25.6867L24.0446 14.4565L7.85687 1.19603Z" fill="#FFC850"/>
<path d="M5.03964 23.5718L15.406 15.1492L5.03964 3.47292V23.5718Z" fill="#EBAF4B"/>
<path d="M47.1432 1.19603C48.2723 0.278544 49.9605 1.08216 49.9605 2.53686V25.6867L30.9555 14.4565L47.1432 1.19603Z" fill="#FFC850"/>
<path d="M49.9605 23.5718L39.5941 15.1492L49.9605 3.47292V23.5718Z" fill="#EBAF4B"/>
<path d="M27.4999 54.1939C40.8585 54.1939 51.6879 43.9446 51.6879 31.3014C51.6879 18.6582 40.8585 8.40892 27.4999 8.40892C14.1412 8.40892 3.31189 18.6582 3.31189 31.3014C3.31189 43.9446 14.1412 54.1939 27.4999 54.1939Z" fill="#FFDC64"/>
<path d="M30.9555 45.5555V47.2833C30.9555 49.1917 29.4085 50.7387 27.5001 50.7387C25.5917 50.7387 24.0447 49.1916 24.0447 47.2833V45.5555L27.5 43.8278L30.9555 45.5555Z" fill="#FF8087"/>
<path d="M29.4076 36.6617H25.5924C24.7687 36.6617 24.3126 37.6165 24.8305 38.2571L26.7382 40.6173C27.1303 41.1023 27.8698 41.1023 28.2619 40.6173L30.1696 38.2571C30.6874 37.6166 30.2314 36.6617 29.4076 36.6617Z" fill="#5D5360"/>
<path d="M33.547 52.4665C20.1884 52.4665 9.35894 42.2172 9.35894 29.5742C9.35894 20.2901 15.2018 12.3028 23.5942 8.71088C12.0935 10.4786 3.31189 19.9177 3.31189 31.3018C3.31189 43.945 14.1413 54.1941 27.5 54.1941C31.0492 54.1941 34.4163 53.4647 37.4528 52.165C36.1809 52.3607 34.8773 52.4665 33.547 52.4665Z" fill="#FFC850"/>
<path d="M17.5656 34.3253C15.9026 34.3253 14.5421 32.9647 14.5421 31.3018V29.5741C14.5421 27.9112 15.9027 26.5506 17.5656 26.5506C19.2285 26.5506 20.5891 27.9112 20.5891 29.5741V31.3018C20.5892 32.9647 19.2286 34.3253 17.5656 34.3253Z" fill="#4B3F4E"/>
<path d="M17.5656 26.5506C17.4178 26.5506 17.276 26.5737 17.1337 26.5944V30.8699C17.1337 31.8241 17.9072 32.5977 18.8614 32.5977C19.8156 32.5977 20.5892 31.8241 20.5892 30.8699V29.5741C20.5892 27.9112 19.2286 26.5506 17.5656 26.5506Z" fill="#5D5360"/>
<path d="M17.5656 30.0059C18.2811 30.0059 18.8611 29.4259 18.8611 28.7104C18.8611 27.9949 18.2811 27.4149 17.5656 27.4149C16.8501 27.4149 16.2701 27.9949 16.2701 28.7104C16.2701 29.4259 16.8501 30.0059 17.5656 30.0059Z" fill="white"/>
<path d="M37.4344 34.3253C35.7714 34.3253 34.4109 32.9647 34.4109 31.3018V29.5741C34.4109 27.9112 35.7715 26.5506 37.4344 26.5506C39.0973 26.5506 40.4579 27.9112 40.4579 29.5741V31.3018C40.458 32.9647 39.0974 34.3253 37.4344 34.3253Z" fill="#4B3F4E"/>
<path d="M37.4344 26.5506C37.2866 26.5506 37.1448 26.5737 37.0025 26.5944V30.8699C37.0025 31.8241 37.776 32.5977 38.7302 32.5977C39.6845 32.5977 40.458 31.8241 40.458 30.8699V29.5741C40.458 27.9112 39.0974 26.5506 37.4344 26.5506Z" fill="#5D5360"/>
<path d="M37.4342 30.0059C38.1497 30.0059 38.7297 29.4259 38.7297 28.7104C38.7297 27.9949 38.1497 27.4149 37.4342 27.4149C36.7187 27.4149 36.1387 27.9949 36.1387 28.7104C36.1387 29.4259 36.7187 30.0059 37.4342 30.0059Z" fill="white"/>
<path d="M28.1684 40.6542L26.2607 36.878C26.2261 36.8093 26.2066 36.7342 26.1805 36.6617H25.5925C24.7688 36.6617 24.3127 37.6166 24.8305 38.2571L26.7382 40.6173C27.1083 41.075 27.779 41.0849 28.1837 40.6785C28.179 40.6695 28.173 40.6634 28.1684 40.6542Z" fill="#4B3F4E"/>
<path d="M24.0446 45.5555V47.2833C24.0446 47.5574 24.0844 47.8207 24.1448 48.0764C25.3429 47.9277 26.4886 47.5138 27.5001 46.8362C28.5116 47.5139 29.6573 47.9277 30.8554 48.0764C30.9158 47.8207 30.9556 47.5574 30.9556 47.2833V45.5555L27.5 43.8278L24.0446 45.5555Z" fill="#E6646E"/>
<path d="M21.3948 31.3019V29.5741C21.3948 28.9999 21.2707 28.4475 21.0256 27.932C20.8347 27.53 20.354 27.3591 19.9522 27.5501C19.5503 27.7411 19.3793 28.2217 19.5703 28.6235C19.7118 28.9212 19.7835 29.2411 19.7835 29.5741V31.3019C19.7835 32.5247 18.7886 33.5197 17.5657 33.5197C16.3428 33.5197 15.3479 32.5247 15.3479 31.3019V29.5741C15.3479 28.3512 16.3428 27.3563 17.5657 27.3563C18.0106 27.3563 18.3714 26.9956 18.3714 26.5506C18.3714 26.1057 18.0106 25.745 17.5657 25.745C15.4543 25.745 13.7366 27.4627 13.7366 29.5741V31.3019C13.7366 33.4133 15.4543 35.131 17.5657 35.131C19.6771 35.131 21.3948 33.4133 21.3948 31.3019Z" fill="black"/>
<path d="M41.2636 31.3019V29.5741C41.2636 28.9999 41.1395 28.4475 40.8944 27.932C40.7034 27.53 40.2228 27.3589 39.821 27.5501C39.4191 27.7411 39.2481 28.2217 39.4391 28.6235C39.5806 28.9212 39.6523 29.2411 39.6523 29.5741V31.3019C39.6523 32.5247 38.6574 33.5197 37.4345 33.5197C36.2116 33.5197 35.2167 32.5247 35.2167 31.3019V29.5741C35.2167 28.3512 36.2116 27.3563 37.4345 27.3563C37.8794 27.3563 38.2402 26.9956 38.2402 26.5506C38.2402 26.1057 37.8794 25.745 37.4345 25.745C35.323 25.745 33.6054 27.4627 33.6054 29.5741V31.3019C33.6054 33.4133 35.3231 35.131 37.4345 35.131C39.5459 35.131 41.2636 33.4133 41.2636 31.3019Z" fill="black"/>
<path d="M34.7368 43.6282C33.9303 44.3515 32.8941 44.7499 31.8193 44.7499C30.9351 44.7499 30.0835 44.4874 29.3564 43.9906C28.2461 43.2321 26.754 43.232 25.6435 43.9906C24.9165 44.4874 24.0649 44.7499 23.1807 44.7499C22.1058 44.7499 21.0698 44.3516 20.2631 43.6282C19.9318 43.3311 19.4226 43.3588 19.1254 43.6901C18.8283 44.0213 18.856 44.5306 19.1873 44.8278C20.2899 45.8167 21.7082 46.3612 23.1807 46.3612C23.2001 46.3612 23.2195 46.3603 23.2389 46.3601V47.2833C23.2389 49.6329 25.1505 51.5444 27.5 51.5444C29.8495 51.5444 31.761 49.6329 31.761 47.2833V46.3601C31.7805 46.3603 31.7998 46.3612 31.8193 46.3612C33.2918 46.3612 34.71 45.8166 35.8126 44.8278C36.1439 44.5306 36.1716 44.0214 35.8745 43.6901C35.5774 43.3588 35.0681 43.3311 34.7368 43.6282ZM30.1498 47.2833C30.1498 48.7444 28.9611 49.9331 27.5001 49.9331C26.0391 49.9331 24.8503 48.7444 24.8503 47.2833V46.1241C25.4527 45.9495 26.0266 45.6805 26.5526 45.321C26.5984 45.2898 26.646 45.2621 26.6944 45.236V46.4194C26.6944 46.8644 27.0551 47.2251 27.5001 47.2251C27.945 47.2251 28.3057 46.8644 28.3057 46.4194V45.236C28.3542 45.2621 28.4019 45.2898 28.4475 45.321C28.9736 45.6805 29.5474 45.9495 30.1498 46.1241V47.2833Z" fill="black"/>
<path d="M26.1117 41.1238C26.4523 41.5451 26.9584 41.7867 27.5001 41.7867C28.0418 41.7867 28.5479 41.5451 28.8885 41.1238L30.7962 38.7636C31.2326 38.2235 31.3179 37.4988 31.0188 36.8721C30.7195 36.2454 30.1021 35.8561 29.4077 35.8561H25.5925C24.898 35.8561 24.2807 36.2455 23.9814 36.8721C23.6821 37.4988 23.7674 38.2235 24.204 38.7635L26.1117 41.1238ZM25.4353 37.5664C25.4667 37.5007 25.5196 37.4674 25.5924 37.4674H29.4076C29.4804 37.4674 29.5332 37.5007 29.5646 37.5664C29.596 37.6321 29.5887 37.6942 29.5429 37.7507L27.6352 40.1107C27.592 40.1642 27.5378 40.1754 27.4999 40.1754C27.462 40.1754 27.4077 40.1642 27.3645 40.1108L25.4568 37.7507C25.4113 37.6942 25.404 37.6322 25.4353 37.5664Z" fill="black"/>
<path d="M52.7611 38.7305C52.3179 38.6114 51.8461 38.5047 51.3546 38.4089C52.1038 36.1387 52.4937 33.749 52.4937 31.3018C52.4937 28.2784 51.8996 25.3423 50.766 22.6117V2.53696C50.766 1.55008 50.2124 0.673529 49.3214 0.249431C48.4303 -0.174667 47.401 -0.0515627 46.6351 0.570727L36.1784 9.06676C33.437 8.10642 30.5093 7.6038 27.4999 7.6038C24.4905 7.6038 21.5627 8.10642 18.8213 9.06676L8.36487 0.570727C7.59896 -0.0515627 6.56954 -0.174775 5.67859 0.249431C4.78753 0.673529 4.23399 1.55008 4.23399 2.53696V22.6118C3.10049 25.3423 2.50623 28.2785 2.50623 31.3018C2.50623 33.749 2.89628 36.1388 3.64532 38.4089C3.15387 38.5047 2.68208 38.6113 2.23886 38.7305C1.80918 38.846 1.55448 39.288 1.66996 39.7176C1.76664 40.0774 2.09202 40.3144 2.44747 40.3144C2.51665 40.3144 2.58712 40.3053 2.65716 40.2865C3.14034 40.1567 3.66326 40.0425 4.21272 39.9416C4.75477 41.2563 5.42271 42.523 6.20936 43.7295C5.37394 44.0756 4.5627 44.4462 3.80409 44.8408C3.40932 45.046 3.25571 45.5324 3.46099 45.9272C3.6045 46.2033 3.88541 46.3614 4.17641 46.3614C4.30156 46.3614 4.42864 46.3322 4.54745 46.2704C5.36116 45.8473 6.24631 45.451 7.16121 45.0832C7.95978 46.1379 8.85406 47.1388 9.84255 48.0745C14.5613 52.5405 20.8322 55 27.4999 55C34.1676 55 40.4385 52.5405 45.1572 48.0745C46.1458 47.1388 47.0402 46.1379 47.8388 45.0831C48.7534 45.4509 49.6386 45.8473 50.4524 46.2704C50.5711 46.3322 50.6982 46.3614 50.8235 46.3614C51.1145 46.3614 51.3954 46.2033 51.539 45.9272C51.7443 45.5324 51.5907 45.046 51.1959 44.8408C50.4373 44.4463 49.626 44.0756 48.7906 43.7296C49.5773 42.5232 50.2452 41.2564 50.7873 39.9417C51.3366 40.0426 51.8596 40.1568 52.3427 40.2866C52.4127 40.3054 52.4832 40.3145 52.5524 40.3145C52.9078 40.3145 53.2332 40.0774 53.3299 39.7177C53.4456 39.288 53.1908 38.846 52.7611 38.7305ZM47.6513 1.82132C47.9343 1.59144 48.2998 1.54761 48.6291 1.70445C48.9559 1.85999 49.1516 2.16819 49.1543 2.52944L47.5974 4.2847C47.3021 4.6176 47.3326 5.12678 47.6655 5.42208C47.8189 5.55818 48.0098 5.62499 48.1998 5.62499C48.4222 5.62499 48.6437 5.53336 48.8029 5.35397L49.1549 4.95716V19.4505C48.0691 17.6736 46.7317 16.0193 45.1575 14.5294C44.338 13.7539 43.4707 13.0403 42.5636 12.388L46.519 7.92875C46.8143 7.59585 46.7838 7.08667 46.4509 6.79137C46.118 6.49618 45.6087 6.52669 45.3135 6.85948L41.2135 11.4818C40.1545 10.8203 39.0481 10.2395 37.9027 9.74212L47.6513 1.82132ZM6.37103 1.70434C6.70038 1.54761 7.06582 1.59144 7.34877 1.82122L17.0973 9.74201C15.952 10.2395 14.8456 10.8202 13.7866 11.4818L5.84574 2.52934C5.84853 2.16808 6.04414 1.85989 6.37103 1.70434ZM5.84531 4.95705L12.4366 12.3879C11.5295 13.0402 10.6622 13.7537 9.84266 14.5293C8.26851 16.0192 6.93112 17.6736 5.84531 19.4505V4.95705ZM47.2423 43.1243C42.4916 41.3682 37.5315 40.3895 37.2646 40.3375C36.8279 40.2525 36.4048 40.5375 36.3197 40.9743C36.2346 41.411 36.5197 41.834 36.9565 41.9191C37.0185 41.9312 41.7058 42.8557 46.2516 44.4819C41.985 49.8841 35.1678 53.3886 27.5 53.3886C19.8324 53.3886 13.0152 49.8842 8.74858 44.4821C13.2931 42.8567 17.9816 41.9312 18.0436 41.919C18.4803 41.8339 18.7654 41.4109 18.6802 40.9741C18.5951 40.5375 18.1723 40.2527 17.7354 40.3375C17.4685 40.3895 12.5084 41.3682 7.75772 43.1243C7.02651 42.0386 6.39348 40.8886 5.86905 39.6858C10.6246 39.0715 16.3364 39.2318 16.4075 39.234C16.8527 39.2504 17.2236 38.8977 17.237 38.453C17.2504 38.0082 16.9008 37.6368 16.4559 37.6235C16.1518 37.6142 10.1987 37.447 5.26599 38.1402C4.52156 35.9859 4.11744 33.6879 4.11744 31.302C4.11744 19.1233 14.6068 9.21522 27.4999 9.21522C40.393 9.21522 50.8823 19.1233 50.8823 31.302C50.8823 33.6879 50.4781 35.9859 49.7338 38.1402C44.8011 37.4471 38.8479 37.6144 38.5439 37.6236C38.0992 37.637 37.7495 38.0084 37.7629 38.4531C37.7763 38.8978 38.1467 39.2464 38.5924 39.2341C38.6634 39.232 44.3752 39.0716 49.1308 39.6861C48.6065 40.8886 47.9735 42.0386 47.2423 43.1243Z" fill="black"/>
</g>
<defs>
<clipPath id="clip0">
<rect width="55" height="55" fill="white"/>
</clipPath>
</defs>
</svg>
